<svg xmlns="http://www.w3.org/2000/svg" viewBox="0 0 448 448"><path fill="#e0e0e0" d="M277.733 252.81c31.966-18.644 53.742-52.923 53.742-92.527 0-59.267-48.22-107.475-107.475-107.475-59.267 0-107.475 48.208-107.475 107.475 0 39.604 21.77 73.884 53.738 92.528C112.35 274.105 72 328.998 72 395.193h24.566c0-71.466 55.98-127.434 127.434-127.434 72.64 0 127.434 54.793 127.434 127.434H376c0-66.197-40.35-121.09-98.267-142.383zM141.09 160.282c0-45.713 37.197-82.91 82.91-82.91 45.725 0 82.91 37.197 82.91 82.91s-37.186 82.91-82.91 82.91c-45.713 0-82.91-37.197-82.91-82.91z"/></svg>